<?xml version="1.0" encoding="UTF-8"?>
<svg version="1.1" viewBox="0 0 512 512" xml:space="preserve" xmlns="http://www.w3.org/2000/svg"><path d="m274.87 0.0024755c-2.0902-0.053028-4.2452 0.73846-5.994 3.0932-4.6626 6.2795-3.5606 26.235 0.0687 35.347 3.6293 9.1126 2.1236 40.27 1.9888 44.721-0.13477 4.4507-5.3408 8.1533-7.5589 6.4902-2.2184-1.6633-7.4654-11.194-9.5751-1.2949-2.1097 9.8986-10.917 8.8378-19.27-5.2146-8.5909-14.209-15.409-13.533-27.078-41.828-3.9348-9.5405-6.8429-16.51-7.0726-24.575-0.22953-8.0655-10.169-15.943-13.486-11.264-3.3171 4.6788-3.2751 11.045 5.4134 21.165 8.6885 10.119 5.2477 13.137 8.8808 26.399 0.98617 3.5998 8.3895 11.105 11.346 17.241 2.9567 6.136 1.5528 20.474-0.50995 22.352-2.0628 1.8779-8.4302 0.48174-11.184-2.2136-2.7535-2.6953-2.5395-7.1888-4.7718-20.297-2.2325-13.108-11.459-24.058-12.586-25.952-1.1267-1.8944-10.292-10.495-14.522-4.1079-4.2298 6.3874-3.6444 15.598-2.8812 19.149 0.7632 3.5513 13.275 26.647 20.635 37.52 7.3608 10.872 3.8862 20.837-3.1872 19.554-7.0734-1.2828-11.593 0.79438-11.913 5.5655-0.32046 4.771 4.7543 9.9635 4.5384 13.877-0.21592 3.9137-19.451 10.511-19.17-4.9543 0.28054-15.465-6.5746-16.824-7.9318-16.958-1.3573-0.13441-12.952 1.2949-15.424-2.5094-2.4718-3.8043-14.224-20.921-19.239-24.475-5.0156-3.5543-32.884-21.206-32.884-21.206s-23.621-8.8499-29.116 5.2755c-5.4944 14.125 6.6909 28.39 13.82 29.196 7.129 0.80634 17.551 4.2856 23.273 9.6496s36.375 27.839 36.375 27.839 11.213 26.879-6.7254 25.123c-17.938-1.7557-28.573 5.632-28.573 5.632-2.198 13.056 6.9741 10.353 8.2437 15.006 1.2693 4.6526-2.9262 7.3753-1.1552 14.316 1.7709 6.941 9.7325 7.0812 7.2922 12.661-2.4401 5.5792-15.695 3.595-7.806 12.668 7.8886 9.0735 6.2631 20.765-1.3494 25.803-7.6124 5.0386-14.129-5.215-26.38 2.2391-12.251 7.4543-25.675 7.1501-31.682 6.8524-6.0065-0.29746-24.905-12.785-29.924 0.39962-5.0193 13.185 6.3013 17.456 15.769 14.1 9.468-3.355 28.266-1.977 38.902-0.30757 10.635 1.6695 43.145 5.1808 34.276 20.898-8.8691 15.717-30.22 9.4083-39.101 9.5654-8.8816 0.15729-43.806 10.615-27.602 29.925 16.206 19.311 43.482-1.5448 50.787-7.7105 7.3047-6.1654 29.706-1.7557 26.672 3.4164-3.0338 5.1719-6.4832 17.469-3.3304 18.767 3.1529 1.2973 14.855-7.4458 14.757-2.4487-0.098 4.9971-12.104 10.218-6.4783 13.995 5.6252 3.7769 7.9538-1.1686 9.1067 0.19198 1.1527 1.3606 4.984 10.126-5.8819 14.479-10.866 4.3524-40.032 29.2-69.11 56.248-29.076 27.047-21.73 42.9-15.997 45.648 5.7332 2.751 25.194 7.9317 29.838-17.637 4.6443-25.568 29.064-41.115 35.779-44.519 6.7146-3.4059 24.966-11.718 29.436-18.416 4.4699-6.6976 18.149-17.193 17.562-11.971-0.58773 5.2223 1.6172 11.6 9.7948 12.716 8.1777 1.1158 10.077-15.985 18.574-11.313 8.497 4.6723 8.0265 16.459 5.7291 26.54-2.2973 10.081-4.9487 25.425 6.7137 24.199 11.662-1.2264 10.242-19.543 10.291-26.211 0.0495-6.6682-6.9301-15.041 7.1569-8.4019 14.087 6.6392 19.669 26.222 19.568 36.01-0.10046 9.7878-1.8969 17.054-7.857 21.983-6.5622 5.4273-9.6873 60.961 6.6116 53.234 16.837-7.9809 13.004-9.0199 14.234-51.03 1.4171-48.423 21.444-54.547 24.111-54.926 2.6664-0.38034 5.2918 3.2547 8.2869 3.3498 2.9949 0.0951 9.8272-7.387 14.124-5.9612s27.193 10.279 24.291 39.159c-2.9011 28.88 3.5643 26.748 8.4497 26.652 4.8854-0.0959 18.333-8.3866 6.2116-39.539s10.949-30.22 16.938-27.741c5.9886 2.4795 47.83 39.149 43.249 77.295-4.5812 38.145 63.819 32.414 28.702-4.5486-35.118-36.962-36.085-81.388-33.315-83.946 2.7694-2.5577 14.48 6.4112 16.068 2.9482 1.5876-3.4629-8.8762-31.24 5.9388-27.272 14.815 3.9672 25.662 38.657 30.228 38.689 4.5658 0.0322 7.019-10.372 4.7033-15.926-2.3155-5.5543-25.696-31.282-16.689-31.055 9.0066 0.22727 11.819 7.6295 20.153 15.997 8.3334 8.3672 10.809-4.0374 9.6341-7.8572-1.1754-3.82-18.81-9.9864-18.706-15.307 0.10425-5.321 3.1684-7.8048 8.1573-7.2323 4.9886 0.57223 27.316 15.763 30.53 6.1062 3.2148-9.6569-6.7316-18.717-11.264-20.996-4.5326-2.2791-16.798 3.519-17.637-3.1578-0.83828-6.6767 18.174-27.476 17.691-29.112-0.4832-1.636-10.201-2.0373-10.201-3.2577 0-1.2204 7.845-6.4418 6.6236-7.92-1.2213-1.478-9.365-1.682-9.8222-7.9378-0.45742-6.2557 28.646-19.757 28.842-28.518 0.19602-8.7617-10.301-7.3814-12.749-9.1779-2.4478-1.7965 1.0838-8.9007-0.67079-13.438-1.7546-4.5378-7.5086-0.13533-8.475-5.0442-0.96633-4.9088 9.7367-11.925 5.5858-16.753-4.1508-4.8282-20.18-3.0525-19.406-12.363 0.77457-9.3104 21.483-14.697 14.891-20.792-6.592-6.0957-20.916-7.3463-31.725-9.7222-10.809-2.3759-12.003-8.785-11.954-16.539 0.0482-7.7544 27.396-45.18 21.422-44.314-5.9745 0.86678-29.453 29.457-33.574 28.319-4.1216-1.1386-2.5504-14.979-8.1826-16.29-5.6323-1.312-3.3702 6.6058-20.368 3.103-16.998-3.5027-23.725-20.737-24.113-25.98-0.38756-5.2424 18.245-33.664 8.5161-37.647-9.7288-3.9835-27.447 6.5393-31.754 8.2863-4.3071 1.7472-17.719 11.586-24.427 7.6046s-11.724-17.385-12.735-24.289c-1.0107-6.9039 4.5484-36.887 3.0303-39.205-0.94871-1.4488-4.2539-3.8824-7.7374-3.9708zm41.941 30.168c-11.893 1.2342-4.8798 16.297-4.8798 16.297 3.5614 5.0043 12.368-2.0099 15.255-4.7936 2.8875-2.7837 1.5179-12.737-10.375-11.503zm124.07 49.08c-12.848 0.50265-7.8728 14.526-7.8728 14.526 9.7824 4.9826 27.035-12.92 10.687-14.438-1.0217-0.09484-1.958-0.12167-2.8145-0.08815zm-151.52 8.1747c0.35408-0.0096 0.65518 0.03384 0.8924 0.13714 3.9215 2.0591 1.6552 23.683-11.215 17.78-12.084-5.5426 5.011-17.769 10.323-17.917zm50.368 14.081c4.5475-0.22449 15.473 20.573-8e-3 20.597-13.476 0.0206-4.1966-20.238 8e-3 -20.597zm-66.161 5.5752c11.733 0.95739 31.693 22.519 15.618 62.255-16.002 39.557-28.189 44.052-37.45 47.779-9.7101 3.9044-61.074-1.8366-44.653-54.342 17.213-55.035 61.41-56.022 66.485-55.692zm64.924 18.446c15.157 2.033 26.188 13.625 31.062 47.179 4.874 33.553-7.3811 54.507-19.657 63.278-12.275 8.7746-64.945 19.347-58.512-44.886 6.4313-64.233 47.107-65.57 47.107-65.57zm112.73 23.198c-2.4489 0.40285-4.4445 1.8741-4.9798 4.9423 0 0-3.3524 10.971 12.141 5.9906 11.62-3.7354 0.18605-12.142-7.161-10.933zm-376.61 1.099c-2.5563 0.14306-5.18 0.75026-5.18 0.75026-8.6349 2.444-8.7906 19.027 4.9346 7.356 8.5784-7.2943 4.5056-8.3447 0.24515-8.1062zm400.86 2.409c-1.6025-0.0705-3.7865 0.54809-4.8212 1.112 0 0-9.6914 6.0736 6.8263 5.1731 4.6252-0.25213 2.2633-6.2077-2.0052-6.2851zm-432.08 1.6206c-6.5381-0.17687-6.4695 7.3588-5.1742 15.981 0 0 0.89634 17.173 17.019 8.3217 16.122-8.8511 1.1306-20.861-8.6241-23.737-1.2193-0.35942-2.2866-0.54088-3.2205-0.56614zm140.18 3.8885c5.3976 0.88769 6.0314 22.752-7.0352 17.64-13.221-5.1719 3.1794-18.167 7.0352-17.64zm-2.6164 30.005c31.704 4.661 20.952 57.283 13.702 69.342-9.7205 16.164-69.617 16.803-62.743-22.12 8.72-49.37 49.03-47.191 49.043-47.219zm325.77 25.157c-2.5387-0.34003-6.1149 0.1772-10.972 2.0686-19.428 7.5659-34.406 7.3088-34.406 7.3088s-2.1624 2.4408 5.1389 4.5547c7.301 2.1138 35.879 1.4048 41.746-1.7905 4.3997-2.3965 6.1099-11.121-1.5063-12.142zm-118.59 1.003c4.1792 0.1023 15.392 22.653-1.1376 21.088-16.622-1.5732-3.5259-20.786 1.1376-21.088zm-123.76 23.388c3.9744-0.15248 7.9389 0.29416 11.811 1.5143 30.978 9.7608 33.963 57.283 33.963 57.283s31.318 23.008 28.106 49.693c-3.2121 26.682-18.205 45.027-44.765 45.208-26.56 0.18066-59.94-33.635-59.94-33.635s-28.105 4.3842-38.725 4.956c-10.619 0.57178-45.621-1.3831-45.21-46.393 0.41172-45.007 58.669-47.134 58.669-47.134s28.272-30.426 56.095-31.494zm107.45 5.244c2.3079 0.0717 3.7611 0.4 3.96 0.67388 21.839 7.8898 26.1 45.615 19.412 62.19-6.7806 16.801-24.173 17.313-28.314 17.552-3.178 0.18327-52.195-1.2705-40.798-41.808 9.6794-34.431 35.739-38.92 45.741-38.609zm-278.31 107.24c-4.3212-0.0371-10.216 2.0502-14.222 6.2077 0 0-21.424 31.264 6.6863 11.91 17.569-12.096 14.738-18.056 7.5356-18.118zm381.64 4.1941c-3.0134 0.0764-5.3295 1.2059-5.6585 3.8435 0 0-0.79347 20.246 16.813 11.636 13.204-6.4575-2.114-15.709-11.154-15.479zm-467.92 52.166c-9.3555 1.004-11.927 21.936 6.2096 11.466 19.346-11.168-4.2523-11.385-4.2523-11.385-0.67985-0.1253-1.3337-0.14746-1.9574-0.08014zm266.31 30.072c-3.9331 0.2498-10.162 4.3786-11.378 9.5477 0 0-6.9733 24.853 8.973 4.1707 7.9733-10.341 6.3375-13.968 2.4046-13.718zm150.21 1.9511c-1.6533-0.0242-2.7911 0.86685-3.0283 3.1147 0 0 2.5427 21.818 13.278 28.736 10.735 6.918 13.538-12.843 8.2711-18.918-3.9499-4.5555-13.561-12.859-18.521-12.933z" fill="#fff" stroke="#fff" stroke-width="1.0823px"/></svg>
