<?xml version="1.0" encoding="UTF-8"?>
<svg width="512" height="512" version="1.1" viewBox="0 0 512 512" xml:space="preserve" xmlns="http://www.w3.org/2000/svg"><g transform="matrix(4.1356 0 0 4.0169 -8.1535 -3.9494)"><path d="m68.29 1.113c-0.5033-0.013162-1.0222 0.18329-1.4433 0.76775-1.1227 1.5586-0.85736 6.5116 0.01653 8.7734 0.87389 2.2618 0.51133 9.9953 0.47888 11.1s-1.286 2.0237-1.8201 1.6109c-0.53417-0.41283-1.7976-2.7783-2.3056-0.32139-0.508 2.4569-2.6288 2.1936-4.6401-1.2943-2.0686-3.5267-3.7103-3.359-6.5202-10.382-0.94746-2.368-1.6477-4.0978-1.703-6.0997-0.05527-2.0019-2.4486-3.9571-3.2473-2.7958-0.79872 1.1613-0.7886 2.7415 1.3035 5.2532 2.0921 2.5116 1.2636 3.2607 2.1384 6.5524 0.23746 0.89349 2.0201 2.7563 2.7321 4.2793 0.71194 1.523 0.37389 5.0817-0.12279 5.5478-0.49669 0.46611-2.0299 0.11957-2.6929-0.54943-0.66301-0.669-0.61148-1.7843-1.149-5.0378-0.53756-3.2535-2.7593-5.9713-3.0306-6.4415s-2.4782-2.605-3.4967-1.0196c-1.0185 1.5854-0.87754 3.8714-0.69377 4.7528 0.18377 0.88146 3.1964 6.614 4.9688 9.3126 1.7724 2.6986 0.93576 5.1719-0.76744 4.8535-1.7032-0.31841-2.7914 0.19717-2.8686 1.3814-0.07716 1.1842 1.1448 2.473 1.0928 3.4444-0.05199 0.97141-4.6835 2.6089-4.616-1.2297 0.06755-3.8385-1.5831-4.1759-1.9099-4.2092-0.32682-0.03336-3.1188 0.3214-3.714-0.62285-0.59518-0.94425-3.4249-5.1927-4.6325-6.0749-1.2077-0.88221-7.9181-5.2634-7.9181-5.2634s-5.6878-2.1966-7.0109 1.3094c-1.323 3.506 1.6111 7.0465 3.3276 7.2467 1.7166 0.20014 4.226 1.0637 5.604 2.3951 1.378 1.3314 8.7588 6.9097 8.7588 6.9097s2.6999 6.6716-1.6194 6.2358c-4.3193-0.43577-6.8801 1.3979-6.8801 1.3979-0.52925 3.2405 1.6793 2.5697 1.985 3.7245 0.30564 1.1548-0.70459 1.8306-0.27817 3.5533 0.42642 1.7228 2.3435 1.7576 1.7559 3.1425-0.58755 1.3848-3.7791 0.8923-1.8796 3.1444 1.8995 2.2521 1.5081 5.154-0.32492 6.4045-1.833 1.2506-3.4022-1.2944-6.3521 0.55575-2.9499 1.8502-6.1823 1.7747-7.6286 1.7008-1.4463-0.07383-5.9969-3.1734-7.2055 0.09919-1.2086 3.2726 1.5173 4.3326 3.7971 3.4998 2.2798-0.83273 6.8062-0.4907 9.3671-0.07634 2.5609 0.41437 10.389 1.2859 8.2534 5.187s-7.2766 2.3352-9.4152 2.3742c-2.1386 0.03904-10.548 2.6346-6.6463 7.4276 3.9022 4.793 10.47-0.38344 12.229-1.9138 1.7589-1.5303 7.1529-0.43577 6.4224 0.84798-0.7305 1.2837-1.5611 4.336-0.80192 4.658s3.5769-1.8481 3.5534-0.60778c-0.02359 1.2403-2.9144 2.5361-1.5599 3.4736 1.3545 0.93745 1.9152-0.29005 2.1928 0.04765 0.27755 0.3377 1.2001 2.5134-1.4163 3.5937s-9.6392 7.2476-16.641 13.961c-7.0013 6.7133-5.2323 10.648-3.8519 11.33 1.3805 0.68282 6.0664 1.9687 7.1847-4.3775 1.1183-6.3462 6.9984-10.205 8.6152-11.05 1.6168-0.84537 6.0115-2.9086 7.0879-4.571 1.0763-1.6624 4.3702-4.2675 4.2287-2.9713-0.14152 1.2962 0.38942 2.8791 2.3585 3.1561 1.9691 0.27694 2.4264-3.9676 4.4724-2.8079 2.046 1.1597 1.9327 4.0852 1.3795 6.5874-0.55316 2.5021-1.1916 6.3107 1.6166 6.0063 2.8081-0.30439 2.4661-4.8506 2.478-6.5057 0.01192-1.6551-1.6687-3.7333 1.7233-2.0854 3.3921 1.6479 4.736 6.5084 4.7119 8.9378-0.02419 2.4294-0.45675 4.2328-1.8919 5.4564-1.5801 1.3471-2.3326 15.131 1.592 13.213 4.0542-1.9809 3.1313-2.2388 3.4273-12.666 0.34122-12.019 5.1636-13.539 5.8056-13.633 0.64204-0.0944 1.2742 0.80784 1.9954 0.83144 0.72114 0.0236 2.3663-1.8335 3.4008-1.4796s6.5477 2.5514 5.8491 9.7196c-0.69856 7.1682 0.85825 6.6389 2.0346 6.6151s4.4144-2.0816 1.4957-9.8139c-2.9187-7.7323 2.6365-7.5008 4.0785-6.8854 1.442 0.61543 11.517 9.717 10.414 19.185-1.1031 9.4679 15.367 8.0453 6.9112-1.129-8.4561-9.1743-8.6889-20.201-8.022-20.836 0.66685-0.63484 3.4866 1.5913 3.8689 0.73177 0.38229-0.85951-2.1373-7.7539 1.43-6.7692 3.5674 0.98469 6.1792 9.5949 7.2787 9.6029 1.0994 8e-3 1.6901-2.5744 1.1325-3.953-0.55756-1.3786-6.1873-7.7645-4.0186-7.7081 2.1687 0.05641 2.846 1.8937 4.8526 3.9705 2.0066 2.0768 2.6028-1.0021 2.3198-1.9502-0.28303-0.94816-4.5292-2.4787-4.5041-3.7994 0.0251-1.3207 0.76292-1.9372 1.9642-1.7951 1.2012 0.14203 6.5773 3.9125 7.3514 1.5156s-1.6209-4.6457-2.7123-5.2113c-1.0914-0.56568-4.0448 0.87345-4.2467-0.78379-0.20185-1.6572 4.3762-6.8197 4.2599-7.2258-0.11635-0.40606-2.4563-0.50567-2.4563-0.80859 0-0.30292 1.889-1.5989 1.5949-1.9658-0.29409-0.36686-2.255-0.41749-2.3651-1.9702-0.11014-1.5527 6.8976-4.9038 6.9448-7.0784 0.0472-2.1747-2.4804-1.8321-3.0698-2.278s0.26096-2.2092-0.16152-3.3355c-0.42248-1.1263-1.808-0.03359-2.0407-1.252-0.23268-1.2184 2.3445-2.9598 1.345-4.1582-0.99947-1.1984-4.8592-0.75765-4.6727-3.0686 0.18651-2.3109 5.1728-3.6478 3.5855-5.1608-1.5873-1.513-5.0364-1.8234-7.639-2.4131-2.6026-0.58971-2.8901-2.1805-2.8785-4.1052 0.01161-1.9247 6.5968-11.214 5.1582-10.999-1.4386 0.21514-7.0919 7.3115-8.0844 7.0289-0.99244-0.28261-0.61412-3.7178-1.9703-4.0434-1.3562-0.32565-0.8115 1.6396-4.9045 0.77018-4.093-0.8694-5.7128-5.1471-5.8061-6.4483-0.09332-1.3012 4.3932-8.3555 2.0506-9.3442-2.3426-0.98872-6.609 1.6231-7.6461 2.0567-1.0371 0.43367-4.2665 2.8756-5.8817 1.8875-1.6152-0.9881-2.8231-4.3151-3.0665-6.0287-0.24337-1.7136 1.0952-9.1555 0.72966-9.7308-0.22844-0.35959-1.0243-0.96364-1.8631-0.98557zm10.099 7.4878c-2.8638 0.30634-1.175 4.0449-1.175 4.0449 0.85754 1.2421 2.9781-0.49886 3.6733-1.1898 0.69527-0.69093 0.36549-3.1614-2.4983-2.8551zm29.876 12.182c-3.0937 0.12476-1.8957 3.6054-1.8957 3.6054 2.3555 1.2367 6.5098-3.2069 2.5734-3.5835-0.24602-0.02354-0.47146-0.0302-0.67771-0.02188zm-36.484 2.029c0.08526-0.0024 0.15776 0.0084 0.21488 0.03404 0.94425 0.51109 0.39856 5.8782-2.7005 4.413-2.9096-1.3757 1.2066-4.4103 2.4856-4.447zm12.128 3.495c1.095-0.05572 3.7257 5.1063-0.0019 5.1122-3.2448 0.0051-1.0105-5.0231 0.0019-5.1122zm-15.931 1.3838c2.8251 0.23763 7.6314 5.5893 3.7607 15.452-3.8531 9.8182-6.7877 10.934-9.0176 11.859-2.3381 0.96911-14.706-0.45584-10.752-13.488 4.1446-13.66 14.787-13.905 16.009-13.823zm15.633 4.5783c3.6497 0.50459 6.3058 3.3817 7.4794 11.71 1.1736 8.328-1.7773 13.529-4.7331 15.706-2.9558 2.1779-15.638 4.802-14.089-11.141 1.5486-15.943 11.343-16.275 11.343-16.275zm27.145 5.7579c-0.58967 0.09999-1.0702 0.46516-1.1991 1.2267 0 0-0.80723 2.7231 2.9234 1.4869 2.7979-0.92716 0.0448-3.0136-1.7243-2.7136zm-90.683 0.27277c-0.61553 0.03551-1.2473 0.18622-1.2473 0.18622-2.0792 0.60661-2.1167 4.7225 1.1882 1.8258 2.0656-1.8105 1.0849-2.0712 0.05903-2.012zm96.523 0.59792c-0.38586-0.01749-0.91176 0.13604-1.1609 0.27602 0 0-2.3336 1.5075 1.6437 1.284 1.1137-0.06258 0.54499-1.5408-0.48283-1.56zm-104.04 0.40224c-1.5743-0.0439-1.5578 1.8265-1.2459 3.9666 0 0 0.21583 4.2624 4.0979 2.0655 3.8821-2.1969 0.27224-5.1779-2.0766-5.8916-0.2936-0.08921-0.55058-0.13425-0.77547-0.14052zm33.755 0.96515c1.2997 0.22033 1.4523 5.6471-1.694 4.3784-3.1836-1.2837 0.76558-4.5091 1.694-4.3784zm-0.63001 7.4475c7.6339 1.1569 5.0451 14.218 3.2993 17.211-2.3406 4.0121-16.763 4.1706-15.108-5.4904 2.0997-12.254 11.806-11.713 11.809-11.72zm78.442 6.2441c-0.6113-0.0844-1.4724 0.04398-2.6419 0.51345-4.6781 1.8779-8.2846 1.8141-8.2846 1.8141s-0.52068 0.60582 1.2374 1.1305c1.758 0.52465 8.6393 0.34869 10.052-0.44441 1.0594-0.59483 1.4712-2.7604-0.3627-3.0136zm-28.556 0.24895c1.0063 0.02539 3.7063 5.6225-0.27392 5.2342-4.0024-0.39049-0.84901-5.1593 0.27392-5.2342zm-29.799 5.805c0.957-0.03785 1.9116 0.07301 2.844 0.37585 7.4593 2.4227 8.1779 14.218 8.1779 14.218s7.5411 5.7108 6.7677 12.334c-0.77344 6.6227-4.3837 11.176-10.779 11.221-6.3954 0.04484-14.433-8.3485-14.433-8.3485s-6.7675 1.0882-9.3245 1.2301c-2.557 0.14192-10.985-0.3433-10.886-11.515 0.09914-11.171 14.127-11.699 14.127-11.699s6.8075-7.552 13.507-7.817zm25.872 1.3016c0.55572 0.01781 0.90564 0.09928 0.95352 0.16726 5.2585 1.9583 6.2845 11.322 4.6741 15.436-1.6327 4.1701-5.8205 4.2973-6.8177 4.3566-0.76524 0.04549-12.568-0.31534-9.8237-10.377 2.3307-8.5461 8.6057-9.6602 11.014-9.583zm-67.015 26.618c-1.0405-0.0092-2.4598 0.50886-3.4244 1.5408 0 0-5.1588 7.76 1.61 2.9562 4.2305-3.0024 3.5487-4.4817 1.8145-4.4971zm91.896 1.041c-0.72559 0.01897-1.2833 0.29932-1.3625 0.95397 0 0-0.19106 5.0252 4.0483 2.8882 3.1795-1.6028-0.50903-3.899-2.6858-3.8421zm-112.67 12.948c-2.2527 0.2492-2.872 5.4446 1.4952 2.8459 4.6583-2.772-1.0239-2.8259-1.0239-2.8259-0.1637-0.0311-0.32115-0.0366-0.47133-0.0199zm64.124 7.464c-0.94704 0.062-2.447 1.0868-2.7397 2.3698 0 0-1.6791 6.1686 2.1606 1.0352 1.9199-2.5667 1.526-3.467 0.57901-3.405zm36.17 0.48428c-0.3981-6e-3 -0.67206 0.21516-0.72918 0.77309 0 0 0.61225 5.4154 3.1973 7.1324 2.585 1.7171 3.2597-3.1878 1.9916-4.6955-0.95109-1.1307-3.2654-3.1918-4.4597-3.21z" fill="#fefefe" stroke="#fff" stroke-width=".26458px"/></g></svg>
