<?xml version="1.0" encoding="UTF-8"?>
<svg version="1.1" viewBox="0 0 512 512" xml:space="preserve" xmlns="http://www.w3.org/2000/svg"><path d="m178.73 0s-24.94 22.864-50.574 82.447-26.326 140.64-26.326 140.64-12.472 15.242-11.779 40.877c1.0073 34.441 13.141 62.277 13.141 62.277s-19.376 21.553-38.775 67.279-25.916 118.48-25.916 118.48h94.402s-0.85554-4.3038 1.2266-20.838c2.0514-16.29 12.979-36.742 12.979-36.742s-5.2611 20.453-7.2207 30.496c-1.9595 10.043-0.86133 27.084-0.86133 27.084h116.35s-8.111-11.802-13.252-33.441c-5.2664-22.168-2.4062-32.709-2.4062-32.709s-1.6081 4.9665 5.8027 31.026c9.4443 25.268 19.547 35.124 19.547 35.124h76.824l45.762-63.457s-0.37191 1.5916 16.652 4.041c13.649 1.6371 17.334-3.9805 17.334-3.9805s-2.2074 0.11523-4.5957 0.11523c-2.3882 0-3.4297-1.4043-3.4297-1.4043s16.786-5.9416 26.311-14.648c9.5872-8.7069 16.281-20.438 16.281-20.438s1.7361 14.204-4.8457 32.91-0.34772 31.87 4.502 31.523c4.8498-0.34658 7.9654-6.9288 8.6582-15.936 0.69282-9.0068-4.5016-49.533-2.7695-68.586s-1.0375-48.845-2.7695-34.988c-1.7321 13.856-16.686 26.482-30.486 27.016-10.739 0.34659-33.951 1.3911-44.689 14.555-10.739 13.164-7.6211 40.527-7.6211 40.527l-62.354 64.779s-22.041-18.849-44.133-64.549c-11.898-24.613-7.3767-53.53-7.3767-53.53s-8.6061 9.7676-35.2 3.4118c-33.401-8.8701-51.351-23.86-51.351-23.86s33.713 18.608 61.603 19.006c17.2 0.24567 54.044-16.494 66.262-25.373 12.763-9.0545 27.924-20.088 30.373-35.52 2.4495-15.432-11.268-25.229-11.268-25.229s7.8345-30.372 12.979-44.824c5.0273-14.124 1.4425-23.201 1.2754-23.611-0.20547-0.16115-1.4135-3.626-6.7198-8.667-4.8756-4.6318-39.587-20.077-39.587-20.077 21.343 4.9513 45.678 13.9 52.555 24.451 12.609-8.0935 49.637-32.234 67.469-49.602 33.453-32.581 45.844-59.832 45.844-59.832s31.868-66.342 9.6972-86.434c-21.889-19.837-56.812-3.4616-96.996 15.938-40.184 19.399-111.9 63.825-111.9 63.825s-4.3025 20.153-16.463 50.355c-11.883 23.663-19.201 27.156-19.201 27.156s10.39-9.7035 24.246-65.822c13.857-56.119 11.084-119.85 11.084-119.85zm7.9102 246.7c3.6969 0.10311 7.7668 0.90006 12.184 2.7188 17.667 7.2747 14.549 31.18 14.549 31.18s-3.464-24.94-23.902-27.365c-20.438-2.4249-31.521 18.012-31.521 18.012s0.40042-8.6602 6.2324-15.242c3.4114-3.8501 11.368-9.6112 22.459-9.3027zm116.32 32.494c5.3453 0.0999 8.4414 6.25 8.4414 6.25s-7.6183-3.4641-12.295 0c-3.3635 2.4914-6.5938 8.1152-6.5938 8.1152s-0.15239-8.4384 4.3848-11.996c2.2491-1.7636 4.2807-2.4024 6.0625-2.3691zm-59.1 7.9258 36.252 7.1055s-10.534 10.287-14.943 9.7969c-4.4091-0.48992-21.309-16.902-21.309-16.902zm11.756 42.381s2.6972 6.8583 6.8613 9.5527 11.023 5.6348 11.023 5.6348-7.5938 0.48628-13.473-2.4531c-5.8788-2.9394-6.1211-6.8555-6.1211-6.8555s-16.413 8.3276-30.375 6.123c-13.962-2.2045-31.846-9.7969-31.846-9.7969s16.169 4.6512 37.725 4.4063c21.556-0.24503 26.205-6.6113 26.205-6.6113z" fill="#fff"/></svg>
